<?xml version="1.0" encoding="UTF-8" standalone="no"?>
<svg width="223px" height="81px" viewBox="0 0 223 81" version="1.1" xmlns="http://www.w3.org/2000/svg" xmlns:xlink="http://www.w3.org/1999/xlink" xmlns:sketch="http://www.bohemiancoding.com/sketch/ns">
    <!-- Generator: Sketch 3.4.2 (15857) - http://www.bohemiancoding.com/sketch -->
    <title>browser</title>
    <desc>Created with Sketch.</desc>
    <defs></defs>
    <g id="basic" stroke="none" stroke-width="1" fill="none" fill-rule="evenodd" sketch:type="MSPage">
        <g id="Desktop-HD" sketch:type="MSArtboardGroup" transform="translate(-226.000000, -441.000000)">
            <g id="WEB-DEV-Copy" sketch:type="MSLayerGroup" transform="translate(163.000000, 320.000000)">
                <g id="browser" transform="translate(63.000000, 121.000000)" sketch:type="MSShapeGroup">
                    <rect id="Rectangle-7-Copy-2" stroke="#4C4C4C" fill-opacity="0.05" fill="#6D4162" x="0" y="0" width="144.478873" height="81" rx="4"></rect>
                    <rect id="Rectangle-7-Copy-3" stroke="#4C4C4C" fill-opacity="0.05" fill="#6D4162" x="153.116197" y="0" width="69.8838028" height="81" rx="4"></rect>
                    <g id="browser-buttons" transform="translate(2.534717, 4.263158)" stroke="#418B86">
                        <ellipse id="Oval-4" fill="#FA625D" cx="1.68981138" cy="1.70526316" rx="1.68981138" ry="1.70526316"></ellipse>
                        <path d="M6.75924553,3.41052632 C7.69250259,3.41052632 8.44905691,2.64705399 8.44905691,1.70526316 C8.44905691,0.763472321 7.69250259,0 6.75924553,0 C5.82598847,0 5.06943415,0.763472321 5.06943415,1.70526316 C5.06943415,2.64705399 5.82598847,3.41052632 6.75924553,3.41052632 Z" id="Oval-4-Copy" fill="#FBBC40"></path>
                        <ellipse id="Oval-4-Copy-2" fill="#35CB4B" cx="11.8286797" cy="1.70526316" rx="1.68981138" ry="1.70526316"></ellipse>
                    </g>
                    <g id="browser-buttons-copy" transform="translate(155.650914, 4.263158)" stroke="#418B86">
                        <ellipse id="Oval-4" fill="#FA625D" cx="1.68981138" cy="1.70526316" rx="1.68981138" ry="1.70526316"></ellipse>
                        <path d="M6.75924553,3.41052632 C7.69250259,3.41052632 8.44905691,2.64705399 8.44905691,1.70526316 C8.44905691,0.763472321 7.69250259,0 6.75924553,0 C5.82598847,0 5.06943415,0.763472321 5.06943415,1.70526316 C5.06943415,2.64705399 5.82598847,3.41052632 6.75924553,3.41052632 Z" id="Oval-4-Copy" fill="#FBBC40"></path>
                        <ellipse id="Oval-4-Copy-2" fill="#35CB4B" cx="11.8286797" cy="1.70526316" rx="1.68981138" ry="1.70526316"></ellipse>
                    </g>
                    <rect id="Rectangle-13" stroke="#4C4C4C" fill-opacity="0.05" fill="#915382" x="5.91433984" y="14.5425292" width="117.441891" height="4.26315789"></rect>
                    <rect id="Rectangle-13-Copy" stroke="#4C4C4C" fill-opacity="0.05" fill="#915382" x="160.60096" y="14.5425292" width="54.6249897" height="4.26315789"></rect>
                    <path d="M0.5,9.5 L143.633968,9.5" id="Line" stroke="#4C4C4C" stroke-linecap="square"></path>
                    <path d="M154.030737,9.54210526 L222.215696,9.54210528" id="Line-Copy-3" stroke="#4C4C4C" stroke-linecap="square"></path>
                    <g id="Group" transform="translate(4.845501, 25.726316)" stroke="#4C4C4C">
                        <g transform="translate(0.000000, 28.742188)">
                            <rect id="Rectangle-9-Copy-4" fill-opacity="0.05" fill="#999079" x="0" y="1.05912829" width="5.49188699" height="5.54210526"></rect>
                            <path d="M6.12556626,1.27228618 L30.2645974,1.27228618" id="Line-Copy-14" stroke-linecap="square"></path>
                            <path d="M6.12556626,3.40386513 L30.2645974,3.40386513" id="Line-Copy-13" stroke-linecap="square"></path>
                            <path d="M6.12556626,5.96175987 L30.2645974,5.96175987" id="Line-Copy-12" stroke-linecap="square"></path>
                        </g>
                        <g id="Group-Copy" transform="translate(0.000000, 16.984375)">
                            <rect id="Rectangle-9-Copy-4" fill-opacity="0.05" fill="#999079" x="0" y="1.05912829" width="5.49188699" height="5.54210526"></rect>
                            <path d="M6.12556626,1.27228618 L30.2645974,1.27228618" id="Line-Copy-14" stroke-linecap="square"></path>
                            <path d="M6.12556626,3.40386513 L30.2645974,3.40386513" id="Line-Copy-13" stroke-linecap="square"></path>
                            <path d="M6.12556626,5.96175987 L30.2645974,5.96175987" id="Line-Copy-12" stroke-linecap="square"></path>
                        </g>
                        <g id="Group-Copy-2" transform="translate(0.000000, 8.492188)">
                            <rect id="Rectangle-9-Copy-4" fill-opacity="0.05" fill="#999079" x="0" y="1.05912829" width="5.49188699" height="5.54210526"></rect>
                            <path d="M6.12556626,1.27228618 L30.2645974,1.27228618" id="Line-Copy-14" stroke-linecap="square"></path>
                            <path d="M6.12556626,3.40386513 L30.2645974,3.40386513" id="Line-Copy-13" stroke-linecap="square"></path>
                            <path d="M6.12556626,5.96175987 L30.2645974,5.96175987" id="Line-Copy-12" stroke-linecap="square"></path>
                        </g>
                        <g id="Group-Copy-3">
                            <rect id="Rectangle-9-Copy-4" fill-opacity="0.05" fill="#999079" x="0" y="1.05912829" width="5.49188699" height="5.54210526"></rect>
                            <path d="M6.12556626,1.27228618 L30.2645974,1.27228618" id="Line-Copy-14" stroke-linecap="square"></path>
                            <path d="M6.12556626,3.40386513 L30.2645974,3.40386513" id="Line-Copy-13" stroke-linecap="square"></path>
                            <path d="M6.12556626,5.96175987 L30.2645974,5.96175987" id="Line-Copy-12" stroke-linecap="square"></path>
                        </g>
                    </g>
                    <g id="Group-Copy-8-+-Group-Copy-9-+-Group-Copy-10" transform="translate(172.353873, 34.163209)" stroke="#4C4C4C">
                        <g id="Group-Copy-8" transform="translate(0.211226, 20.243339)">
                            <rect id="Rectangle-9-Copy-4" fill-opacity="0.05" fill="#999079" x="0" y="1.05912829" width="5.49188699" height="5.54210526"></rect>
                            <path d="M6.12556626,1.27228618 L30.2645974,1.27228618" id="Line-Copy-14" stroke-linecap="square"></path>
                            <path d="M6.12556626,3.40386513 L30.2645974,3.40386513" id="Line-Copy-13" stroke-linecap="square"></path>
                            <path d="M6.12556626,5.96175987 L30.2645974,5.96175987" id="Line-Copy-12" stroke-linecap="square"></path>
                        </g>
                        <g id="Group-Copy-9" transform="translate(0.211226, 10.438076)">
                            <rect id="Rectangle-9-Copy-4" fill-opacity="0.05" fill="#999079" x="0" y="1.05912829" width="5.49188699" height="5.54210526"></rect>
                            <path d="M6.12556626,1.27228618 L30.2645974,1.27228618" id="Line-Copy-14" stroke-linecap="square"></path>
                            <path d="M6.12556626,3.40386513 L30.2645974,3.40386513" id="Line-Copy-13" stroke-linecap="square"></path>
                            <path d="M6.12556626,5.96175987 L30.2645974,5.96175987" id="Line-Copy-12" stroke-linecap="square"></path>
                        </g>
                        <g id="Group-Copy-10" transform="translate(0.211226, 0.000000)">
                            <rect id="Rectangle-9-Copy-4" fill-opacity="0.05" fill="#999079" x="0" y="1.05912829" width="5.49188699" height="5.54210526"></rect>
                            <path d="M6.12556626,1.27228618 L30.2645974,1.27228618" id="Line-Copy-14" stroke-linecap="square"></path>
                            <path d="M6.12556626,3.40386513 L30.2645974,3.40386513" id="Line-Copy-13" stroke-linecap="square"></path>
                            <path d="M6.12556626,5.96175987 L30.2645974,5.96175987" id="Line-Copy-12" stroke-linecap="square"></path>
                        </g>
                    </g>
                </g>
            </g>
        </g>
    </g>
</svg>