<svg id="development-node" data-name="development" xmlns="http://www.w3.org/2000/svg" viewBox="0 0 720 740">
  <defs>
    <style>
      .dev-cls-1 {
        fill: #ededed;
      }

      .dev-cls-2 {
        fill: #e2e0e3;
        fill-rule: evenodd;
      }

      .dev-cls-3, .dev-cls-4 {
        fill: #293e4d;
      }

      .dev-cls-4 {
        font-size: 30px;
        font-family: Helvetica Neue;
      }

      .dev-cls-5 {
        letter-spacing: -2px;
      }

      .dev-cls-6 {
        fill: #e8e6e8;
      }

      .dev-cls-6, .dev-cls-7, .dev-cls-8, .dev-cls-9 {
        stroke: #6a6a6a;
        stroke-miterlimit: 10;
        stroke-width: 2px;
      }

      .dev-cls-7 {
        fill: #f8615c;
      }

      .dev-cls-8 {
        fill: #fbbd40;
      }

      .dev-cls-9 {
        fill: #35cb4c;
      }
    </style>
  </defs>
  <title>development</title>
  <g id="DEVELOP">
    <rect id="square" class="dev-cls-1" width="720" height="740"/>
    <path id="panel" class="dev-cls-2" d="M1082,1164h718v154H1082V1164h0Zm0,0" transform="translate(-1080 -578)"/>
    <path id="dev" class="dev-cls-3" d="M1306.86,1252h10.34a18.47,18.47,0,0,0,5.83-1,16.07,16.07,0,0,0,5.28-2.93,14.9,14.9,0,0,0,3.81-4.86,16.69,16.69,0,0,0,0-13.62,14.84,14.84,0,0,0-3.81-4.88,16.1,16.1,0,0,0-5.28-2.93,18.49,18.49,0,0,0-5.83-1h-10.34V1252h0Zm3.17-28.34h6.29a15.77,15.77,0,0,1,6.14,1.1,12.82,12.82,0,0,1,4.33,2.88,11.77,11.77,0,0,1,2.57,4.07,13.35,13.35,0,0,1,0,9.42,11.77,11.77,0,0,1-2.57,4.07,12.81,12.81,0,0,1-4.33,2.88,15.76,15.76,0,0,1-6.14,1.1H1310v-25.52h0Zm31.64,16.46a7,7,0,0,1,.66-2.53,7.43,7.43,0,0,1,1.54-2.16,7.33,7.33,0,0,1,2.24-1.5,6.93,6.93,0,0,1,2.77-.55,6.35,6.35,0,0,1,4.95,1.91,7.42,7.42,0,0,1,1.87,4.82h-14Zm16.43-3a9.47,9.47,0,0,0-1.87-3.23,8.81,8.81,0,0,0-3.08-2.2,10.51,10.51,0,0,0-4.27-.81,10.24,10.24,0,0,0-4.09.81,10.12,10.12,0,0,0-3.3,2.27,10.43,10.43,0,0,0-2.2,3.43,11.51,11.51,0,0,0-.79,4.31,11.22,11.22,0,0,0,.81,4.31,10.72,10.72,0,0,0,2.22,3.43,9.94,9.94,0,0,0,3.37,2.27,11,11,0,0,0,4.25.81,11.39,11.39,0,0,0,4.77-1,11.16,11.16,0,0,0,4.07-3.34l-2.24-1.76a8.06,8.06,0,0,1-2.57,2.49,7.87,7.87,0,0,1-7,.48,7.62,7.62,0,0,1-2.38-1.61,7.31,7.31,0,0,1-1.58-2.38,8,8,0,0,1-.62-2.9h17.07a6.91,6.91,0,0,0,0-.75v-0.66a12.07,12.07,0,0,0-.64-4h0Zm23.87-5.72h-3.21l-6.73,17.42h-0.09l-6.69-17.42h-3.34l8.4,20.59h3.3l8.36-20.59h0Zm6.34,8.71a7,7,0,0,1,.66-2.53,7.43,7.43,0,0,1,1.54-2.16,7.33,7.33,0,0,1,2.24-1.5,6.93,6.93,0,0,1,2.77-.55,6.35,6.35,0,0,1,4.95,1.91,7.42,7.42,0,0,1,1.87,4.82h-14Zm16.43-3a9.47,9.47,0,0,0-1.87-3.23,8.81,8.81,0,0,0-3.08-2.2,10.51,10.51,0,0,0-4.27-.81,10.24,10.24,0,0,0-4.09.81,10.12,10.12,0,0,0-3.3,2.27,10.43,10.43,0,0,0-2.2,3.43,11.51,11.51,0,0,0-.79,4.31,11.22,11.22,0,0,0,.81,4.31,10.72,10.72,0,0,0,2.22,3.43,9.94,9.94,0,0,0,3.37,2.27,11,11,0,0,0,4.25.81,11.39,11.39,0,0,0,4.77-1,11.16,11.16,0,0,0,4.07-3.34l-2.24-1.76a8.06,8.06,0,0,1-2.57,2.49,7.87,7.87,0,0,1-7,.48,7.62,7.62,0,0,1-2.38-1.61,7.31,7.31,0,0,1-1.58-2.38,8,8,0,0,1-.62-2.9h17.07a6.91,6.91,0,0,0,0-.75v-0.66a12.07,12.07,0,0,0-.64-4h0Zm10.14-18.39h-3V1252h3v-33.26h0Zm27.65,18.66a10.16,10.16,0,0,0-5.74-5.7,11.81,11.81,0,0,0-4.44-.81,11.69,11.69,0,0,0-4.4.81,10.16,10.16,0,0,0-5.74,5.7,11.83,11.83,0,0,0,0,8.62,10.37,10.37,0,0,0,2.27,3.43,10.26,10.26,0,0,0,3.48,2.27,11.69,11.69,0,0,0,4.4.81,11.81,11.81,0,0,0,4.44-.81,10.27,10.27,0,0,0,3.48-2.27,10.38,10.38,0,0,0,2.27-3.43,11.83,11.83,0,0,0,0-8.62h0Zm-2.9,7.55a7.94,7.94,0,0,1-1.56,2.64,7.14,7.14,0,0,1-2.46,1.76,8,8,0,0,1-3.26.64,7.85,7.85,0,0,1-3.23-.64,7.18,7.18,0,0,1-2.44-1.76,7.91,7.91,0,0,1-1.56-2.64,9.78,9.78,0,0,1,0-6.47,7.91,7.91,0,0,1,1.56-2.64,7.44,7.44,0,0,1,2.44-1.78,7.63,7.63,0,0,1,3.23-.66,7.78,7.78,0,0,1,3.26.66,7.39,7.39,0,0,1,2.46,1.78,7.94,7.94,0,0,1,1.56,2.64,9.78,9.78,0,0,1,0,6.47h0Zm13.13,3.59h0.13a8.37,8.37,0,0,0,3.41,3,9.85,9.85,0,0,0,4.33,1,11.05,11.05,0,0,0,4.38-.84,10,10,0,0,0,3.34-2.29,10.34,10.34,0,0,0,2.16-3.43,12.21,12.21,0,0,0,0-8.54,10.34,10.34,0,0,0-2.16-3.43,10,10,0,0,0-3.34-2.29,11.05,11.05,0,0,0-4.38-.84,9.85,9.85,0,0,0-4.33,1,8.17,8.17,0,0,0-3.41,3.06h-0.13v-3.56h-3v31.15h3v-14h0Zm14.83-3.59a7.83,7.83,0,0,1-1.52,2.64,6.91,6.91,0,0,1-2.44,1.76,8.12,8.12,0,0,1-3.3.64,7.77,7.77,0,0,1-5.68-2.38A7.87,7.87,0,0,1,1453,1245a9.34,9.34,0,0,1,0-6.56,8.13,8.13,0,0,1,1.65-2.64,7.61,7.61,0,0,1,2.51-1.76,7.8,7.8,0,0,1,3.17-.64,7.89,7.89,0,0,1,3.3.66,7.16,7.16,0,0,1,2.44,1.78,7.83,7.83,0,0,1,1.52,2.64,10.17,10.17,0,0,1,0,6.47h0Zm13.07-10h-0.09q0-.66,0-1.67t-0.13-1.85h-2.86q0.09,1.06.13,2.38t0,2.16V1252h3v-10.56a10.93,10.93,0,0,1,.53-3.59,7.59,7.59,0,0,1,1.39-2.51,5.59,5.59,0,0,1,1.94-1.47,5.18,5.18,0,0,1,2.13-.48,5.73,5.73,0,0,1,2.46.46,3.61,3.61,0,0,1,1.52,1.32,5.71,5.71,0,0,1,.77,2.09,15.59,15.59,0,0,1,.22,2.73v12h3v-11a12.73,12.73,0,0,1,.31-2.82,7.69,7.69,0,0,1,1-2.44,5.25,5.25,0,0,1,1.8-1.74,5.34,5.34,0,0,1,2.75-.66,4.43,4.43,0,0,1,4.11,2,10,10,0,0,1,1.21,5.24V1252h3v-12.63a9.27,9.27,0,0,0-2-6.16,7.24,7.24,0,0,0-5.87-2.33,8.11,8.11,0,0,0-4.33,1.12,7.75,7.75,0,0,0-2.88,3.23,7.53,7.53,0,0,0-1.25-2.16,6.45,6.45,0,0,0-1.58-1.34,5.57,5.57,0,0,0-1.76-.68,9.12,9.12,0,0,0-1.74-.18,7.62,7.62,0,0,0-4.07,1.12,7,7,0,0,0-2.71,2.93h0Zm37.58,5.19a7,7,0,0,1,.66-2.53,7.43,7.43,0,0,1,1.54-2.16,7.33,7.33,0,0,1,2.24-1.5,6.93,6.93,0,0,1,2.77-.55,6.35,6.35,0,0,1,4.95,1.91,7.42,7.42,0,0,1,1.87,4.82h-14Zm16.43-3a9.47,9.47,0,0,0-1.87-3.23,8.81,8.81,0,0,0-3.08-2.2,10.51,10.51,0,0,0-4.27-.81,10.24,10.24,0,0,0-4.09.81,10.12,10.12,0,0,0-3.3,2.27,10.43,10.43,0,0,0-2.2,3.43,11.51,11.51,0,0,0-.79,4.31,11.22,11.22,0,0,0,.81,4.31,10.72,10.72,0,0,0,2.22,3.43,9.94,9.94,0,0,0,3.37,2.27,11,11,0,0,0,4.25.81,11.39,11.39,0,0,0,4.77-1,11.16,11.16,0,0,0,4.07-3.34l-2.24-1.76a8.06,8.06,0,0,1-2.57,2.49,7.87,7.87,0,0,1-7,.48,7.62,7.62,0,0,1-2.38-1.61,7.31,7.31,0,0,1-1.58-2.38,8,8,0,0,1-.62-2.9h17.07a6.91,6.91,0,0,0,0-.75v-0.66a12.07,12.07,0,0,0-.64-4h0Zm6.89-5.72q0.09,1.06.13,2.38t0,2.16V1252h3v-10.56a10.94,10.94,0,0,1,.53-3.59,7.36,7.36,0,0,1,1.41-2.51,5.68,5.68,0,0,1,2-1.47,5.78,5.78,0,0,1,2.31-.48,6.14,6.14,0,0,1,2.71.53,4.32,4.32,0,0,1,1.72,1.47,6.18,6.18,0,0,1,.9,2.27,15.1,15.1,0,0,1,.26,2.95V1252h3v-12.63a9.27,9.27,0,0,0-2-6.16,7.24,7.24,0,0,0-5.87-2.33,8.35,8.35,0,0,0-4.18,1.12,6.78,6.78,0,0,0-2.86,2.93h-0.09q0-.66,0-1.67t-0.13-1.85h-2.86Zm35,0h-5.81v-5.81h-3v5.81h-4.27v2.51h4.27v12.85a6.45,6.45,0,0,0,.51,2.77,4.57,4.57,0,0,0,1.3,1.67,4.44,4.44,0,0,0,1.72.84,7.61,7.61,0,0,0,1.76.22,10.62,10.62,0,0,0,1.87-.15,8.87,8.87,0,0,0,1.65-.46l-0.13-2.6a6.53,6.53,0,0,1-1.3.48,5.19,5.19,0,0,1-1.3.18,4.7,4.7,0,0,1-1.23-.15,2.17,2.17,0,0,1-1-.57,2.68,2.68,0,0,1-.64-1.17,6.81,6.81,0,0,1-.22-1.89v-12h5.81v-2.51h0Z" transform="translate(-1080 -578)"/>
    <text class="dev-cls-4" transform="translate(58.07 77.15)">ARCHITECT AND CODE THE APPLIC<tspan class="dev-cls-5" x="516.23" y="0">A</tspan><tspan x="533.48" y="0">TION</tspan></text>
        <g id="Window">
          <path class="dev-cls-6" d="M227.66,269h276.9a10,10,0,0,1,10,10V441.91a0,0,0,0,1,0,0H217.66a0,0,0,0,1,0,0V279A10,10,0,0,1,227.66,269Z"/>
          <rect class="dev-cls-7" x="221.43" y="281.51" width="289.04" height="156.63"/>
          <g id="buttons">
            <circle class="dev-cls-8" cx="226.58" cy="275.51" r="2.24"/>
            <circle class="dev-cls-9" cx="234.39" cy="275.51" r="2.24"/>
            <circle class="dev-cls-10" cx="242.19" cy="275.51" r="2.24"/>
          </g>
        </g>
  </g>
</svg>
