<?xml version="1.0" encoding="UTF-8" standalone="no"?>
<svg width="68px" height="22px" viewBox="0 0 68 22" version="1.1" xmlns="http://www.w3.org/2000/svg" xmlns:xlink="http://www.w3.org/1999/xlink" xmlns:sketch="http://www.bohemiancoding.com/sketch/ns">
    <!-- Generator: Sketch 3.4.2 (15857) - http://www.bohemiancoding.com/sketch -->
    <title>Design</title>
    <desc>Created with Sketch.</desc>
    <defs></defs>
    <g id="basic" stroke="none" stroke-width="1" fill="none" fill-rule="evenodd" sketch:type="MSPage">
        <g id="Desktop-HD" sketch:type="MSArtboardGroup" transform="translate(-1069.000000, -572.000000)" fill="#4C4C4C">
            <g id="DESIGN-Copy" sketch:type="MSLayerGroup" transform="translate(928.000000, 320.000000)">
                <g id="Design-+-outline-copy-2" transform="translate(100.000000, 242.000000)" sketch:type="MSShapeGroup">
                    <path d="M41.068,10.424 L46.238,10.424 C47.2060048,10.424 48.1776618,10.5853317 49.153,10.908 C50.1283382,11.2306683 51.0083294,11.7183301 51.793,12.371 C52.5776706,13.0236699 53.2119976,13.8376618 53.696,14.813 C54.1800024,15.7883382 54.422,16.9213269 54.422,18.212 C54.422,19.5173399 54.1800024,20.6539952 53.696,21.622 C53.2119976,22.5900048 52.5776706,23.4003301 51.793,24.053 C51.0083294,24.7056699 50.1283382,25.1933317 49.153,25.516 C48.1776618,25.8386683 47.2060048,26 46.238,26 L41.068,26 L41.068,10.424 Z M42.652,24.592 L45.798,24.592 C46.9713392,24.592 47.994329,24.4086685 48.867,24.042 C49.739671,23.6753315 50.4619971,23.195003 51.034,22.601 C51.6060029,22.006997 52.0349986,21.3286705 52.321,20.566 C52.6070014,19.8033295 52.75,19.0186707 52.75,18.212 C52.75,17.4053293 52.6070014,16.6206705 52.321,15.858 C52.0349986,15.0953295 51.6060029,14.417003 51.034,13.823 C50.4619971,13.228997 49.739671,12.7486685 48.867,12.382 C47.994329,12.0153315 46.9713392,11.832 45.798,11.832 L42.652,11.832 L42.652,24.592 Z M65.488,20.06 C65.4439998,19.0919952 65.1323362,18.2890032 64.553,17.651 C63.9736638,17.0129968 63.148672,16.694 62.078,16.694 C61.5793308,16.694 61.1173355,16.7856658 60.692,16.969 C60.2666645,17.1523342 59.8926683,17.4016651 59.57,17.717 C59.2473317,18.0323349 58.9906676,18.3916647 58.8,18.795 C58.6093324,19.1983354 58.4993335,19.6199978 58.47,20.06 L65.488,20.06 Z M67.006,20.544 L67.006,20.874 C67.006,20.9913339 66.9986667,21.1159993 66.984,21.248 L58.448,21.248 C58.4626667,21.7613359 58.5653324,22.2453311 58.756,22.7 C58.9466676,23.1546689 59.210665,23.550665 59.548,23.888 C59.885335,24.225335 60.2813311,24.492999 60.736,24.691 C61.1906689,24.889001 61.6819974,24.988 62.21,24.988 C62.9873372,24.988 63.6583305,24.8083351 64.223,24.449 C64.7876695,24.0896649 65.2166652,23.6753357 65.51,23.206 L66.632,24.086 C66.0159969,24.8633372 65.3376704,25.420665 64.597,25.758 C63.8563296,26.095335 63.0606709,26.264 62.21,26.264 C61.4473295,26.264 60.7396699,26.1283347 60.087,25.857 C59.4343301,25.5856653 58.8733357,25.2080024 58.404,24.724 C57.9346643,24.2399976 57.5643347,23.6680033 57.293,23.008 C57.0216653,22.3479967 56.886,21.6293372 56.886,20.852 C56.886,20.0746628 57.0179987,19.3560033 57.282,18.696 C57.5460013,18.0359967 57.9126643,17.4640024 58.382,16.98 C58.8513357,16.4959976 59.4013302,16.1183347 60.032,15.847 C60.6626698,15.5756653 61.344663,15.44 62.078,15.44 C62.8846707,15.44 63.5959969,15.5756653 64.212,15.847 C64.8280031,16.1183347 65.3413313,16.4849977 65.752,16.947 C66.1626687,17.4090023 66.4743323,17.9479969 66.687,18.564 C66.8996677,19.1800031 67.006,19.8399965 67.006,20.544 L67.006,20.544 Z M75.696,18.146 C75.4759989,17.7206645 75.1423356,17.3723347 74.695,17.101 C74.2476644,16.8296653 73.7380029,16.694 73.166,16.694 C72.9019987,16.694 72.6380013,16.723333 72.374,16.782 C72.1099987,16.840667 71.8753344,16.9359993 71.67,17.068 C71.4646656,17.2000007 71.2996673,17.3686656 71.175,17.574 C71.0503327,17.7793344 70.988,18.0213319 70.988,18.3 C70.988,18.7840024 71.185998,19.1543321 71.582,19.411 C71.978002,19.667668 72.6013291,19.8839991 73.452,20.06 C74.6693394,20.3093346 75.5676638,20.672331 76.147,21.149 C76.7263362,21.625669 77.016,22.2673293 77.016,23.074 C77.016,23.6606696 76.9023345,24.1556647 76.675,24.559 C76.4476655,24.9623354 76.1506685,25.292332 75.784,25.549 C75.4173315,25.805668 75.0030023,25.9889995 74.541,26.099 C74.0789977,26.2090005 73.6133357,26.264 73.144,26.264 C72.3666628,26.264 71.611337,26.1026683 70.878,25.78 C70.144663,25.4573317 69.5433357,24.9513368 69.074,24.262 L70.262,23.382 C70.5260013,23.8366689 70.9146641,24.2179985 71.428,24.526 C71.9413359,24.8340015 72.5059969,24.988 73.122,24.988 C73.4446683,24.988 73.7526652,24.958667 74.046,24.9 C74.3393348,24.841333 74.5959989,24.7386674 74.816,24.592 C75.0360011,24.4453326 75.2119993,24.2583345 75.344,24.031 C75.4760007,23.8036655 75.542,23.521335 75.542,23.184 C75.542,22.6413306 75.2816693,22.2343347 74.761,21.963 C74.2403307,21.6916653 73.4886716,21.4386678 72.506,21.204 C72.1979985,21.1306663 71.8716684,21.0390006 71.527,20.929 C71.1823316,20.8189994 70.8633348,20.6576677 70.57,20.445 C70.2766652,20.2323323 70.0346676,19.9646683 69.844,19.642 C69.6533324,19.3193317 69.558,18.9160024 69.558,18.432 C69.558,17.9039974 69.6606656,17.4530019 69.866,17.079 C70.0713344,16.7049981 70.3463316,16.3970012 70.691,16.155 C71.0356684,15.9129988 71.4279978,15.7333339 71.868,15.616 C72.3080022,15.4986661 72.7626643,15.44 73.232,15.44 C73.9506703,15.44 74.64733,15.6013317 75.322,15.924 C75.99667,16.2466683 76.502665,16.7013304 76.84,17.288 L75.696,18.146 Z M81.504,26 L80.008,26 L80.008,15.704 L81.504,15.704 L81.504,26 Z M81.812,11.744 C81.812,12.0520015 81.7020011,12.304999 81.482,12.503 C81.2619989,12.701001 81.0200013,12.8 80.756,12.8 C80.4919987,12.8 80.2500011,12.701001 80.03,12.503 C79.8099989,12.304999 79.7,12.0520015 79.7,11.744 C79.7,11.4359985 79.8099989,11.183001 80.03,10.985 C80.2500011,10.786999 80.4919987,10.688 80.756,10.688 C81.0200013,10.688 81.2619989,10.786999 81.482,10.985 C81.7020011,11.183001 81.812,11.4359985 81.812,11.744 L81.812,11.744 Z M86.036,28.068 C86.4466687,28.5960026 87.0076631,29.0433315 87.719,29.41 C88.4303369,29.7766685 89.181996,29.96 89.974,29.96 C90.707337,29.96 91.3306641,29.8536677 91.844,29.641 C92.3573359,29.4283323 92.7716651,29.1386685 93.087,28.772 C93.4023349,28.4053315 93.6333326,27.9763358 93.78,27.485 C93.9266674,26.9936642 94,26.4693361 94,25.912 L94,23.976 L93.956,23.976 C93.559998,24.6213366 92.9990036,25.1199982 92.273,25.472 C91.5469964,25.8240018 90.8100037,26 90.062,26 C89.2553293,26 88.5256699,25.8680013 87.873,25.604 C87.2203301,25.3399987 86.6630023,24.9770023 86.201,24.515 C85.7389977,24.0529977 85.3796679,23.4993366 85.123,22.854 C84.866332,22.2086634 84.738,21.5120037 84.738,20.764 C84.738,20.030663 84.866332,19.3413366 85.123,18.696 C85.3796679,18.0506634 85.7389977,17.4860024 86.201,17.002 C86.6630023,16.5179976 87.2203301,16.1366681 87.873,15.858 C88.5256699,15.5793319 89.2553293,15.44 90.062,15.44 C90.8100037,15.44 91.5433297,15.6159982 92.262,15.968 C92.9806703,16.3200018 93.5453313,16.8259967 93.956,17.486 L94,17.486 L94,15.704 L95.496,15.704 L95.496,25.912 C95.496,26.4693361 95.4190008,27.0633302 95.265,27.694 C95.1109992,28.3246698 94.8250021,28.9039974 94.407,29.432 C93.9889979,29.9600026 93.4206703,30.3999982 92.702,30.752 C91.9833297,31.1040018 91.0520057,31.28 89.908,31.28 C88.9546619,31.28 88.0453377,31.0966685 87.18,30.73 C86.3146623,30.3633315 85.5740031,29.8573366 84.958,29.212 L86.036,28.068 Z M86.322,20.72 C86.322,21.2626694 86.4099991,21.7759976 86.586,22.26 C86.7620009,22.7440024 87.0149983,23.1693315 87.345,23.536 C87.6750016,23.9026685 88.0819976,24.1923323 88.566,24.405 C89.0500024,24.6176677 89.5999969,24.724 90.216,24.724 C90.7880029,24.724 91.3159976,24.6286676 91.8,24.438 C92.2840024,24.2473324 92.7019982,23.9760018 93.054,23.624 C93.4060018,23.2719982 93.680999,22.8503358 93.879,22.359 C94.077001,21.8676642 94.176,21.3213363 94.176,20.72 C94.176,20.1773306 94.077001,19.6640024 93.879,19.18 C93.680999,18.6959976 93.4060018,18.2706685 93.054,17.904 C92.7019982,17.5373315 92.2840024,17.2440011 91.8,17.024 C91.3159976,16.8039989 90.7880029,16.694 90.216,16.694 C89.5999969,16.694 89.0500024,16.8039989 88.566,17.024 C88.0819976,17.2440011 87.6750016,17.5373315 87.345,17.904 C87.0149983,18.2706685 86.7620009,18.6959976 86.586,19.18 C86.4099991,19.6640024 86.322,20.1773306 86.322,20.72 L86.322,20.72 Z M100.732,15.704 C100.761333,15.9826681 100.783333,16.290665 100.798,16.628 C100.812667,16.965335 100.82,17.2439989 100.82,17.464 L100.864,17.464 C101.157335,16.8626637 101.633997,16.3750019 102.294,16.001 C102.954003,15.6269981 103.650663,15.44 104.384,15.44 C105.68934,15.44 106.66833,15.8286628 107.321,16.606 C107.97367,17.3833372 108.3,18.4099936 108.3,19.686 L108.3,26 L106.804,26 L106.804,20.302 C106.804,19.7593306 106.76,19.2680022 106.672,18.828 C106.584,18.3879978 106.433668,18.0103349 106.221,17.695 C106.008332,17.3796651 105.722335,17.1340009 105.363,16.958 C105.003665,16.7819991 104.552669,16.694 104.01,16.694 C103.613998,16.694 103.229002,16.7746659 102.855,16.936 C102.480998,17.0973341 102.147335,17.3429984 101.854,17.673 C101.560665,18.0030017 101.326001,18.4209975 101.15,18.927 C100.973999,19.4330025 100.886,20.0306632 100.886,20.72 L100.886,26 L99.39,26 L99.39,17.97 C99.39,17.6913319 99.3826667,17.3320022 99.368,16.892 C99.3533333,16.4519978 99.3313335,16.0560018 99.302,15.704 L100.732,15.704 Z" id="Design"></path>
                </g>
            </g>
        </g>
    </g>
</svg>