<svg id="design" data-name="design" xmlns="http://www.w3.org/2000/svg" viewBox="0 0 720 740">
  <defs>
    <style>
      .cls-1 {
        fill: #dadad8;
      }

      .cls-2 {
        fill: #ccc;
      }

      .cls-11, .cls-3 {
        fill: #293e4d;
      }

      .cls-3, .cls-9 {
        fill-rule: evenodd;
      }

      .cls-4, .cls-6 {
        fill: none;
      }

      .cls-4 {
        stroke: #f30400;
        stroke-linecap: square;
      }

      .cls-4, .cls-6, .cls-7, .cls-8 {
        stroke-miterlimit: 10;
      }

      .cls-4, .cls-8 {
        stroke-width: 2px;
      }

      .cls-5 {
        fill: #f92400;
      }

      .cls-6, .cls-7 {
        stroke: #959595;
      }

      .cls-7 {
        fill: #ececec;
        stroke-width: 4px;
      }

      .cls-8 {
        fill: #fff;
        stroke: #6a6a6a;
      }

      .cls-9 {
        fill: #6a6a6a;
      }

      .cls-10 {
        fill: #ededed;
      }

      .cls-11 {
        font-size: 30px;
        font-family: Helvetica Neue;
      }

      .cls-12 {
        letter-spacing: -2px;
      }
    </style>
  </defs>
  <title>design2</title>
  <g id="DESIGN">
    <rect id="square" class="cls-1" width="720" height="740"/>
    <rect id="plate" class="cls-2" y="586" width="720" height="154"/>
    <path id="design-2" data-name="design" class="cls-3" d="M606,1220h10.34a18.47,18.47,0,0,1,5.83,1,16.08,16.08,0,0,1,5.28,2.93,14.83,14.83,0,0,1,3.81,4.88,16.69,16.69,0,0,1,0,13.62,14.9,14.9,0,0,1-3.81,4.86,16.08,16.08,0,0,1-5.28,2.93,18.47,18.47,0,0,1-5.83,1H606V1220h0Zm3.17,28.34h6.29a15.76,15.76,0,0,0,6.14-1.1,12.81,12.81,0,0,0,4.33-2.88,11.77,11.77,0,0,0,2.57-4.07,13.35,13.35,0,0,0,0-9.42,11.77,11.77,0,0,0-2.57-4.07,12.81,12.81,0,0,0-4.33-2.88,15.76,15.76,0,0,0-6.14-1.1h-6.29v25.52h0Zm45.67-9.06a7.42,7.42,0,0,0-1.87-4.82,6.35,6.35,0,0,0-4.95-1.91,6.93,6.93,0,0,0-2.77.55,7.33,7.33,0,0,0-2.24,1.5,7.44,7.44,0,0,0-1.54,2.16,7,7,0,0,0-.66,2.53h14Zm3,1v0.66a6.8,6.8,0,0,1,0,.75H640.76a8,8,0,0,0,.62,2.9,7.33,7.33,0,0,0,1.58,2.38,7.63,7.63,0,0,0,2.38,1.61,7.87,7.87,0,0,0,7-.48,8.05,8.05,0,0,0,2.57-2.49l2.24,1.76a11.16,11.16,0,0,1-4.07,3.34,11.38,11.38,0,0,1-4.77,1,11,11,0,0,1-4.25-.81,10,10,0,0,1-3.37-2.27,10.73,10.73,0,0,1-2.22-3.43,11.23,11.23,0,0,1-.81-4.31,11.51,11.51,0,0,1,.79-4.31,10.44,10.44,0,0,1,2.2-3.43,10.12,10.12,0,0,1,3.3-2.27A10.24,10.24,0,0,1,648,1230a10.5,10.5,0,0,1,4.27.81,8.8,8.8,0,0,1,3.08,2.2,9.45,9.45,0,0,1,1.87,3.23,12.05,12.05,0,0,1,.64,4h0Zm17.38-4.8a5.26,5.26,0,0,0-2-2.09,5.78,5.78,0,0,0-3.06-.81,7.28,7.28,0,0,0-1.58.18,4.31,4.31,0,0,0-1.41.57,3.11,3.11,0,0,0-1,1,2.74,2.74,0,0,0-.37,1.45A2.49,2.49,0,0,0,667,1238a11.41,11.41,0,0,0,3.74,1.3,12.48,12.48,0,0,1,5.39,2.18,4.73,4.73,0,0,1,1.74,3.85,5.69,5.69,0,0,1-2.46,5,7.19,7.19,0,0,1-2.49,1.1,12,12,0,0,1-2.79.33,11.14,11.14,0,0,1-4.53-1,8.39,8.39,0,0,1-3.61-3l2.38-1.76a6.72,6.72,0,0,0,5.72,3.21A9.41,9.41,0,0,0,672,1249a4.25,4.25,0,0,0,1.54-.62,3.16,3.16,0,0,0,1.45-2.82,2.61,2.61,0,0,0-1.56-2.44,20.42,20.42,0,0,0-4.51-1.52q-0.92-.22-2-0.55a6.72,6.72,0,0,1-1.91-1,5.27,5.27,0,0,1-1.45-1.61A4.69,4.69,0,0,1,663,1236a5.55,5.55,0,0,1,.62-2.71,5.4,5.4,0,0,1,1.65-1.85,7.36,7.36,0,0,1,2.35-1.08,10.54,10.54,0,0,1,2.73-.35,9.58,9.58,0,0,1,4.18,1,6.74,6.74,0,0,1,3,2.73l-2.29,1.72h0Zm11.62,15.71h-3v-20.59h3v20.59h0Zm0.62-28.51a2,2,0,0,1-.66,1.52,2.07,2.07,0,0,1-2.9,0,2.08,2.08,0,0,1,0-3,2.07,2.07,0,0,1,2.9,0,2,2,0,0,1,.66,1.52h0Zm8.45,32.65a10,10,0,0,0,3.37,2.68,10.41,10.41,0,0,0,8.25.46,6.48,6.48,0,0,0,2.49-1.74,6.94,6.94,0,0,0,1.39-2.57,11,11,0,0,0,.44-3.15v-3.87h-0.09a7.87,7.87,0,0,1-3.37,3,10,10,0,0,1-4.42,1.06,11.58,11.58,0,0,1-4.38-.79,9.93,9.93,0,0,1-3.34-2.18,9.71,9.71,0,0,1-2.16-3.32,11.21,11.21,0,0,1-.77-4.18,11.09,11.09,0,0,1,.77-4.14,10.44,10.44,0,0,1,2.16-3.39,10,10,0,0,1,3.34-2.29A11,11,0,0,1,704,1230a9.9,9.9,0,0,1,4.4,1.06,8.09,8.09,0,0,1,3.39,3h0.09v-3.56h3V1251a15.05,15.05,0,0,1-.46,3.56,9,9,0,0,1-1.72,3.48,9.69,9.69,0,0,1-3.41,2.64,12.74,12.74,0,0,1-5.59,1.06,13.84,13.84,0,0,1-5.46-1.1,13.16,13.16,0,0,1-4.44-3l2.16-2.29h0Zm0.57-14.7a8.94,8.94,0,0,0,.53,3.08,7.71,7.71,0,0,0,1.52,2.55A7,7,0,0,0,701,1248a8.13,8.13,0,0,0,3.3.64,8.57,8.57,0,0,0,3.17-.57,7.27,7.27,0,0,0,2.51-1.63,7.49,7.49,0,0,0,1.65-2.53,8.7,8.7,0,0,0,.59-3.28,8,8,0,0,0-4.75-7.39,7.56,7.56,0,0,0-3.17-.66,7.89,7.89,0,0,0-3.3.66,7.3,7.3,0,0,0-2.44,1.76,7.71,7.71,0,0,0-1.52,2.55,8.94,8.94,0,0,0-.53,3.08h0Zm28.82-10q0.09,0.84.13,1.85t0,1.67h0.09a6.78,6.78,0,0,1,2.86-2.93,8.35,8.35,0,0,1,4.18-1.12,7.24,7.24,0,0,1,5.87,2.33,9.26,9.26,0,0,1,2,6.16v12.63h-3v-11.4a15.09,15.09,0,0,0-.26-2.95,6.17,6.17,0,0,0-.9-2.27,4.31,4.31,0,0,0-1.72-1.47,6.13,6.13,0,0,0-2.71-.53,5.78,5.78,0,0,0-2.31.48,5.67,5.67,0,0,0-2,1.47,7.37,7.37,0,0,0-1.41,2.51,10.93,10.93,0,0,0-.53,3.59v10.56h-3v-16.06q0-.84,0-2.16t-0.13-2.38h2.86Zm0,0" transform="translate(-316 -578)"/>
    <path id="distance" class="cls-4" d="M661,949H807m-145-6v12m145-12v12" transform="translate(-316 -578)"/>
    <path id="seventy-five" class="cls-5" d="M724,930a22.41,22.41,0,0,0-1.67,3.12,22.79,22.79,0,0,0-1.19,3.42,17.72,17.72,0,0,0-.56,3.42h-1.9a17.63,17.63,0,0,1,.59-3.51,20.26,20.26,0,0,1,1.21-3.28,20.68,20.68,0,0,1,1.71-3,21.65,21.65,0,0,1,2.09-2.58h-7.44v-1.6h9.18v1.46a14.55,14.55,0,0,0-2,2.52h0Zm6.64-2.48-0.76,4.08,0,0a2.74,2.74,0,0,1,1.19-.77,4.45,4.45,0,0,1,1.45-.25,5.25,5.25,0,0,1,1.78.3,4,4,0,0,1,1.46.91,4.34,4.34,0,0,1,1,1.52,5.77,5.77,0,0,1,.36,2.13,5.07,5.07,0,0,1-.31,1.75,4.38,4.38,0,0,1-.93,1.51,4.46,4.46,0,0,1-1.55,1,5.58,5.58,0,0,1-2.17.39,5.43,5.43,0,0,1-1.73-.27,4.43,4.43,0,0,1-1.43-.78,3.63,3.63,0,0,1-1-1.27,4.17,4.17,0,0,1-.38-1.72h1.7a2.73,2.73,0,0,0,.27,1,2.66,2.66,0,0,0,.62.82,2.75,2.75,0,0,0,.92.54,3.44,3.44,0,0,0,1.17.19,3.2,3.2,0,0,0,1.15-.21,2.65,2.65,0,0,0,1-.63,3,3,0,0,0,.65-1.05,4.12,4.12,0,0,0,.24-1.47,3.53,3.53,0,0,0-.23-1.29,3,3,0,0,0-.65-1,3,3,0,0,0-1-.67,3.45,3.45,0,0,0-1.31-.24,3,3,0,0,0-1.49.37,4.18,4.18,0,0,0-1.15,1l-1.46-.08,1.32-7.36h7v1.5h-5.72Z" transform="translate(-316 -578)"/>
    <g id="Bounding-Box">
      <path id="marquee" class="cls-6" d="M493,808H859v280H493V808h0Zm0,0" transform="translate(-316 -578)"/>
      <path id="topleft" class="cls-7" d="M488,802h12v12H488V802h0Zm0,0" transform="translate(-316 -578)"/>
      <path id="top-middle" class="cls-7" d="M671,802h12v12H671V802h0Zm0,0" transform="translate(-316 -578)"/>
      <path id="top-right" class="cls-7" d="M852,802h12v12H852V802h0Zm0,0" transform="translate(-316 -578)"/>
      <path id="middle-left" class="cls-7" d="M488,942h12v12H488V942h0Zm0,0" transform="translate(-316 -578)"/>
      <path id="middle-right" class="cls-7" d="M852,942h12v12H852V942h0Zm0,0" transform="translate(-316 -578)"/>
      <path id="bottom-left" class="cls-7" d="M488,1082h12v12H488v-12h0Zm0,0" transform="translate(-316 -578)"/>
      <path id="bottom-middle" class="cls-7" d="M671,1082h12v12H671v-12h0Zm0,0" transform="translate(-316 -578)"/>
      <path id="bottom-right" class="cls-7" d="M852,1082h12v12H852v-12h0Zm0,0" transform="translate(-316 -578)"/>
    </g>
    <g id="notebook">
      <path class="cls-8" d="M643.89,864h-5.24v174h5.24a16,16,0,0,0,16-16V880A16,16,0,0,0,643.89,864Z" transform="translate(-316 -578)"/>
      <rect class="cls-8" x="212.15" y="286" width="83.94" height="174"/>
      <rect class="cls-8" x="296.09" y="286" width="26.56" height="174"/>
    </g>
    <g id="pen">
      <polygon class="cls-9" points="496 279 492 299.54 492 460 501.36 460 501.36 299.54 497.36 279 496 279"/>
      <rect class="cls-10" x="492" y="446" width="8.29" height="1.75"/>
      <rect class="cls-10" x="492" y="441" width="8.29" height="1.75"/>
      <rect class="cls-10" x="492" y="436" width="8.29" height="1.75"/>
    </g>
    <text class="cls-11" transform="translate(91.58 77.15)">DESIGN THE UI OF THE APPLIC<tspan class="cls-12" x="449" y="0">A</tspan><tspan x="466.25" y="0">TION</tspan></text>
  </g>
</svg>
