<?xml version="1.0" encoding="UTF-8" standalone="no"?>
<svg width="93px" height="110px" viewBox="0 0 93 110" version="1.1" xmlns="http://www.w3.org/2000/svg" xmlns:xlink="http://www.w3.org/1999/xlink" xmlns:sketch="http://www.bohemiancoding.com/sketch/ns">
    <!-- Generator: Sketch 3.4.2 (15857) - http://www.bohemiancoding.com/sketch -->
    <title>LIMINAL LOGO</title>
    <desc>Created with Sketch.</desc>
    <defs></defs>
    <g id="basic-copy" stroke="none" stroke-width="1" fill="none" fill-rule="evenodd" sketch:type="MSPage">
        <g id="Desktop-HD" sketch:type="MSArtboardGroup" transform="translate(-675.000000, -67.000000)" fill="#6A6A6A">
            <g id="LIMINAL-LOGO" sketch:type="MSLayerGroup" transform="translate(675.000000, 67.000000)">
                <path d="M3.10222754,95.011976 L3.10222754,74.3400719 L6.63513772,74.3400719 L6.63513772,91.7710419 L12.3286707,91.7710419 L12.3286707,95.011976 L3.10222754,95.011976 Z M14.6060838,95.011976 L14.6060838,74.3400719 L18.1097964,74.3400719 L18.1097964,95.011976 L14.6060838,95.011976 Z M36.5042874,95.011976 L36.5626826,79.128479 L36.4750898,79.128479 L32.3290299,95.011976 L29.5844551,95.011976 L25.525988,79.128479 L25.4383952,79.128479 L25.4967904,95.011976 L22.3142515,95.011976 L22.3142515,74.3400719 L27.0150659,74.3400719 L30.9859401,89.4644311 L31.1027305,89.4644311 L34.986012,74.3400719 L39.9204072,74.3400719 L39.9204072,95.011976 L36.5042874,95.011976 Z M44.0956647,95.011976 L44.0956647,74.3400719 L47.5993772,74.3400719 L47.5993772,95.011976 L44.0956647,95.011976 Z M60.8550898,95.011976 L54.9863713,80.4131737 L54.8987784,80.4131737 L54.9571737,95.011976 L51.8038323,95.011976 L51.8038323,74.3400719 L55.8039042,74.3400719 L61.6142275,89.0264671 L61.7018204,89.0264671 L61.6726228,74.3400719 L64.7091737,74.3400719 L64.7091737,95.011976 L60.8550898,95.011976 Z M77.8772934,95.011976 L76.8553772,90.6323353 L71.4246228,90.6323353 L70.373509,95.011976 L66.8697964,95.011976 L72.0085749,74.3400719 L76.4758084,74.3400719 L81.526994,95.011976 L77.8772934,95.011976 Z M74.2275928,77.6394012 L74.1108024,77.6394012 L71.8625868,87.8877605 L76.4174132,87.8877605 L74.2275928,77.6394012 Z M83.6876168,95.011976 L83.6876168,74.3400719 L87.2205269,74.3400719 L87.2205269,91.7710419 L92.9140599,91.7710419 L92.9140599,95.011976 L83.6876168,95.011976 Z" id="LIMINAL" sketch:type="MSShapeGroup"></path>
                <g id="Oval-13-+-Oval-14" transform="translate(4.732877, 0.000000)" sketch:type="MSShapeGroup">
                    <path d="M0.0298293889,67.2283792 C0.0100027215,66.80785 0,66.3853036 0,65.9608832 C0,59.4061641 2.38579925,53.2984034 6.49885839,48.1658176 C5.17748711,44.4145881 4.45890411,40.3807343 4.45890411,36.1796407 C4.45890411,16.1981769 20.7146475,0 40.7671233,0 C60.819599,0 77.0753425,16.1981769 77.0753425,36.1796407 C77.0753425,40.1768631 76.4248102,44.0226836 75.2234873,47.6177138 C79.6113451,52.8611489 82.1712329,59.1712298 82.1712329,65.9608832 C82.1712329,66.3853036 82.1612302,66.80785 82.1414035,67.2283792 C81.828731,60.5965082 79.0728197,54.466349 74.5748473,49.4003184 C74.8061618,48.8134447 75.0225307,48.2190881 75.2234873,47.6177138 C67.8491621,38.8054876 55.3117607,33.005988 41.0856164,33.005988 C26.5665743,33.005988 13.8065289,39.0467544 6.49885839,48.1658176 C6.7050145,48.7510724 6.92584322,49.3294477 7.16090481,49.9005055 C2.92085322,54.8676507 0.33228125,60.813291 0.0298293889,67.2283792 Z" id="Oval-13"></path>
                </g>
                <path d="M4.488,106.892 C4.488,107.59467 4.32083501,108.166998 3.9865,108.609 C3.652165,109.051002 3.17900306,109.272 2.567,109.272 C1.61499524,109.272 0.95766848,108.807338 0.595,107.878 L0.867,107.674 C1.22966848,108.512671 1.80199609,108.932 2.584,108.932 C3.04866899,108.932 3.41983195,108.750668 3.6975,108.388 C3.97516806,108.025332 4.114,107.538003 4.114,106.926 C4.114,106.574665 4.0573339,106.282834 3.944,106.0505 C3.8306661,105.818166 3.68900085,105.628334 3.519,105.481 C3.34899915,105.333666 3.16483433,105.214667 2.9665,105.124 C2.76816568,105.033333 2.58400085,104.948334 2.414,104.869 C2.20999898,104.789666 2.02016755,104.693334 1.8445,104.58 C1.66883246,104.466666 1.51583399,104.325001 1.3855,104.155 C1.25516602,103.984999 1.15316704,103.786668 1.0795,103.56 C1.00583297,103.333332 0.969,103.055668 0.969,102.727 C0.969,102.420998 1.01716619,102.134835 1.1135,101.8685 C1.20983382,101.602165 1.34299915,101.367001 1.513,101.163 C1.68300085,100.958999 1.8784989,100.800334 2.0995,100.687 C2.32050111,100.573666 2.56133203,100.517 2.822,100.517 C3.25266882,100.517 3.61249856,100.624666 3.9015,100.84 C4.19050145,101.055334 4.41433254,101.338665 4.573,101.69 L4.301,101.877 C3.98366508,101.196997 3.49067001,100.857 2.822,100.857 C2.40266457,100.857 2.05133475,101.032665 1.768,101.384 C1.48466525,101.735335 1.343,102.177331 1.343,102.71 C1.343,102.993335 1.37416636,103.234166 1.4365,103.4325 C1.49883365,103.630834 1.58949941,103.800833 1.7085,103.9425 C1.8275006,104.084167 1.97199915,104.205999 2.142,104.308 C2.31200085,104.410001 2.5103322,104.506333 2.737,104.597 C2.94100102,104.687667 3.14783229,104.792499 3.3575,104.9115 C3.56716772,105.030501 3.75699915,105.177832 3.927,105.3535 C4.09700085,105.529168 4.23299949,105.741665 4.335,105.991 C4.43700051,106.240335 4.488,106.540665 4.488,106.892 L4.488,106.892 Z M17.9879998,104.903 C17.9879998,105.53767 17.9285004,106.124164 17.8094998,106.6625 C17.6904992,107.200836 17.5205009,107.662665 17.2994998,108.048 C17.0784987,108.433335 16.8093347,108.733666 16.4919998,108.949 C16.1746649,109.164334 15.8176685,109.272 15.4209998,109.272 C15.0243312,109.272 14.6673347,109.164334 14.3499998,108.949 C14.0326649,108.733666 13.7635009,108.433335 13.5424998,108.048 C13.3214987,107.662665 13.1515004,107.200836 13.0324998,106.6625 C12.9134992,106.124164 12.8539998,105.53767 12.8539998,104.903 C12.8539998,104.256997 12.9106659,103.667669 13.0239998,103.135 C13.1373337,102.602331 13.3016654,102.140502 13.5169998,101.7495 C13.7323342,101.358498 14.0014982,101.055334 14.3244998,100.84 C14.6475014,100.624666 15.0129978,100.517 15.4209998,100.517 C15.8176685,100.517 16.1746649,100.624666 16.4919998,100.84 C16.8093347,101.055334 17.0784987,101.358498 17.2994998,101.7495 C17.5205009,102.140502 17.6904992,102.602331 17.8094998,103.135 C17.9285004,103.667669 17.9879998,104.256997 17.9879998,104.903 L17.9879998,104.903 Z M17.6139998,104.903 C17.6139998,104.324997 17.5658336,103.789502 17.4694998,103.2965 C17.373166,102.803498 17.234334,102.375668 17.0529998,102.013 C16.8716656,101.650332 16.6421679,101.364168 16.3644998,101.1545 C16.0868318,100.944832 15.7723349,100.84 15.4209998,100.84 C15.0583313,100.84 14.7381679,100.944832 14.4604998,101.1545 C14.1828318,101.364168 13.953334,101.650332 13.7719998,102.013 C13.5906656,102.375668 13.4546669,102.803498 13.3639998,103.2965 C13.2733327,103.789502 13.2279998,104.324997 13.2279998,104.903 C13.2279998,105.46967 13.2733327,105.996664 13.3639998,106.484 C13.4546669,106.971336 13.5906656,107.396332 13.7719998,107.759 C13.953334,108.121668 14.1828318,108.407832 14.4604998,108.6175 C14.7381679,108.827168 15.0583313,108.932 15.4209998,108.932 C15.7836683,108.932 16.1009984,108.827168 16.3729998,108.6175 C16.6450012,108.407832 16.8744989,108.121668 17.0614998,107.759 C17.2485007,107.396332 17.3873327,106.971336 17.4779998,106.484 C17.5686669,105.996664 17.6139998,105.46967 17.6139998,104.903 L17.6139998,104.903 Z M29.2099996,96.352 C29.1193325,96.3293332 29.04,96.3095001 28.9719996,96.2925 C28.9039993,96.2754999 28.8246667,96.267 28.7339996,96.267 C28.4959984,96.267 28.2948338,96.332166 28.1304996,96.4625 C27.9661655,96.592834 27.8330001,96.759999 27.7309996,96.964 C27.6289991,97.168001 27.5581665,97.4031653 27.5184996,97.6695 C27.4788328,97.9358347 27.4589996,98.2049986 27.4589996,98.477 L27.4589996,100.789 L28.9549996,100.789 L28.9549996,101.129 L27.4589996,101.129 L27.4589996,109 L27.0849996,109 L27.0849996,101.129 L25.8609996,101.129 L25.8609996,100.789 L27.0849996,100.789 L27.0849996,98.494 C27.0849996,97.6779959 27.2209983,97.0490022 27.4929996,96.607 C27.765001,96.1649978 28.1673303,95.944 28.6999996,95.944 C28.8813339,95.944 29.068332,95.9779997 29.2609996,96.046 L29.2099996,96.352 Z M39.0719994,108.932 C38.8226648,109.045334 38.5620008,109.102 38.2899994,109.102 C38.0293315,109.102 37.8225002,109.053834 37.6694994,108.9575 C37.5164987,108.861166 37.3946665,108.728001 37.3039994,108.558 C37.2133323,108.387999 37.1538329,108.186834 37.1254994,107.9545 C37.097166,107.722166 37.0829994,107.470001 37.0829994,107.198 L37.0829994,101.129 L35.9779994,101.129 L35.9779994,100.789 L37.0829994,100.789 L37.0829994,98.375 L37.4569994,98.375 L37.4569994,100.789 L38.9529994,100.789 L38.9529994,101.129 L37.4569994,101.129 L37.4569994,107.198 C37.4569994,107.753336 37.5221654,108.155665 37.6524994,108.405 C37.7828334,108.654335 38.0123311,108.779 38.3409994,108.779 C38.4429999,108.779 38.5534988,108.767667 38.6724994,108.745 C38.7915,108.722333 38.8963323,108.682667 38.9869994,108.626 L39.0719994,108.932 Z M52.5719992,109 L52.0449992,109 L50.3619992,101.214 L50.3449992,101.214 L48.6449992,109 L48.1179992,109 L46.5369992,100.789 L46.8939992,100.789 L48.3899992,108.609 L48.4069992,108.609 L50.1069992,100.789 L50.5999992,100.789 L52.2999992,108.609 L52.3169992,108.609 L53.8299992,100.789 L54.1869992,100.789 L52.5719992,109 Z M66.598999,107.13 C66.598999,107.447335 66.6103323,107.781665 66.632999,108.133 C66.6556658,108.484335 66.6783323,108.773332 66.700999,109 L66.343999,109 C66.3326657,108.886666 66.3213324,108.742168 66.309999,108.5665 C66.2986657,108.390832 66.2901657,108.209501 66.284499,108.0225 C66.2788324,107.835499 66.2731657,107.657001 66.267499,107.487 C66.2618324,107.316999 66.258999,107.169667 66.258999,107.045 L66.224999,107.045 C66.0663316,107.793004 65.8056675,108.342665 65.442999,108.694 C65.0803306,109.045335 64.6496682,109.221 64.150999,109.221 C63.9243312,109.221 63.7005002,109.175667 63.479499,109.085 C63.2584979,108.994333 63.0573333,108.849834 62.875999,108.6515 C62.6946648,108.453166 62.5501663,108.206668 62.442499,107.912 C62.3348318,107.617332 62.280999,107.266002 62.280999,106.858 C62.280999,106.279997 62.382998,105.815335 62.586999,105.464 C62.7910001,105.112665 63.0459975,104.837834 63.351999,104.6395 C63.6580006,104.441166 63.986664,104.310834 64.337999,104.2485 C64.6893341,104.186166 65.0066643,104.155 65.289999,104.155 L66.224999,104.155 L66.224999,103.509 C66.224999,102.590995 66.066334,101.919502 65.748999,101.4945 C65.4316641,101.069498 65.0066684,100.857 64.473999,100.857 C64.1453307,100.857 63.8421671,100.944832 63.564499,101.1205 C63.286831,101.296168 63.0516667,101.531332 62.858999,101.826 L62.603999,101.588 C62.8080001,101.259332 63.085664,100.998668 63.436999,100.806 C63.7883341,100.613332 64.1339973,100.517 64.473999,100.517 C65.1426691,100.517 65.6639972,100.760664 66.037999,101.248 C66.4120009,101.735336 66.598999,102.494662 66.598999,103.526 L66.598999,107.13 Z M66.224999,104.495 L65.391999,104.495 C65.0859975,104.495 64.7715007,104.523333 64.448499,104.58 C64.1254974,104.636667 63.8308337,104.749999 63.564499,104.92 C63.2981644,105.090001 63.0799999,105.327998 62.909999,105.634 C62.7399982,105.940002 62.654999,106.347997 62.654999,106.858 C62.654999,107.232002 62.7031652,107.546499 62.799499,107.8015 C62.8958329,108.056501 63.017665,108.263333 63.164999,108.422 C63.3123331,108.580667 63.4766648,108.696833 63.657999,108.7705 C63.8393333,108.844167 64.0149982,108.881 64.184999,108.881 C64.5816677,108.881 64.9103311,108.770501 65.170999,108.5495 C65.431667,108.328499 65.6413316,108.042335 65.799999,107.691 C65.9586665,107.339665 66.0691654,106.951502 66.131499,106.5265 C66.1938327,106.101498 66.224999,105.690669 66.224999,105.294 L66.224999,104.495 Z M76.0529989,102.863 C76.0529989,102.726999 76.0501656,102.565501 76.0444989,102.3785 C76.0388322,102.191499 76.0331656,101.998834 76.0274989,101.8005 C76.0218322,101.602166 76.0161656,101.412334 76.0104989,101.231 C76.0048322,101.049666 75.9963322,100.902334 75.9849989,100.789 L76.3589989,100.789 C76.3703322,100.902334 76.3788322,101.046832 76.3844989,101.2225 C76.3901656,101.398168 76.3958322,101.585166 76.4014989,101.7835 C76.4071656,101.981834 76.4099989,102.171666 76.4099989,102.353 L76.4099989,102.829 L76.4609989,102.829 C76.6196663,102.024329 76.8661639,101.454835 77.2004989,101.1205 C77.5348339,100.786165 77.9059968,100.619 78.3139989,100.619 C78.404666,100.619 78.4726653,100.624667 78.5179989,100.636 L78.5179989,100.976 C78.4953321,100.964667 78.4613324,100.959 78.4159989,100.959 L78.3139989,100.959 C77.9966639,100.959 77.719,101.072332 77.4809989,101.299 C77.2429977,101.525668 77.0474996,101.820332 76.8944989,102.183 C76.7414981,102.545668 76.6253326,102.950831 76.5459989,103.3985 C76.4666651,103.846169 76.4269989,104.296664 76.4269989,104.75 L76.4269989,109 L76.0529989,109 L76.0529989,102.863 Z M86.5439987,104.801 C86.5439987,105.40167 86.5864982,105.956997 86.6714987,106.467 C86.7564991,106.977003 86.8924977,107.413332 87.0794987,107.776 C87.2664996,108.138668 87.4988306,108.421999 87.7764987,108.626 C88.0541667,108.830001 88.39133,108.932 88.7879987,108.932 C89.264001,108.932 89.6464972,108.790335 89.9354987,108.507 C90.2245001,108.223665 90.4483312,107.883669 90.6069987,107.487 L90.8789987,107.64 C90.7203312,108.070669 90.4681671,108.450332 90.1224987,108.779 C89.7768303,109.107668 89.3320014,109.272 88.7879987,109.272 C88.3573298,109.272 87.9805003,109.167168 87.6574987,108.9575 C87.334497,108.747832 87.0624998,108.453169 86.8414987,108.0735 C86.6204976,107.693831 86.4533326,107.234836 86.3399987,106.6965 C86.2266648,106.158164 86.1699987,105.560337 86.1699987,104.903 C86.1699987,104.279664 86.2266648,103.698836 86.3399987,103.1605 C86.4533326,102.622164 86.6176643,102.157502 86.8329987,101.7665 C87.0483331,101.375498 87.3146637,101.069501 87.6319987,100.8485 C87.9493336,100.627499 88.3176632,100.517 88.7369987,100.517 C89.1790009,100.517 89.5501638,100.621832 89.8504987,100.8315 C90.1508335,101.041168 90.3944977,101.321665 90.5814987,101.673 C90.7684996,102.024335 90.9016649,102.432331 90.9809987,102.897 C91.0603324,103.361669 91.0999987,103.848997 91.0999987,104.359 L91.0999987,104.801 L86.5439987,104.801 Z M90.7599987,104.461 C90.7599987,103.916997 90.7174991,103.424002 90.6324987,102.982 C90.5474982,102.539998 90.4228328,102.160335 90.2584987,101.843 C90.0941645,101.525665 89.8844999,101.279168 89.6294987,101.1035 C89.3744974,100.927832 89.0770004,100.84 88.7369987,100.84 C88.3289966,100.84 87.9861667,100.970332 87.7084987,101.231 C87.4308306,101.491668 87.2041662,101.808998 87.0284987,102.183 C86.8528311,102.557002 86.7281657,102.953665 86.6544987,103.373 C86.5808316,103.792335 86.5439987,104.154998 86.5439987,104.461 L90.7599987,104.461 Z" id="software" sketch:type="MSShapeGroup"></path>
            </g>
        </g>
    </g>
</svg>